<svg xmlns="http://www.w3.org/2000/svg" width="32" height="32"><path fill="#444" d="M4.685 27.313c-6.248-6.248-6.248-16.379 0-22.627 6.25-6.248 16.379-6.248 22.629 0 6.248 6.248 6.248 16.379 0 22.627-6.25 6.249-16.379 6.249-22.629 0zM24.486 7.514c-4.688-4.687-12.285-4.687-16.971 0-4.688 4.687-4.688 12.284 0 16.971 4.686 4.687 12.283 4.687 16.971 0 4.686-4.687 4.686-12.284 0-16.971zM11.758 23.071L8.93 20.242 13.172 16 8.93 11.758l2.828-2.829L16 13.172l4.242-4.243 2.828 2.829L18.828 16l4.242 4.242-2.828 2.829L16 18.828l-4.242 4.243z"/></svg>