<svg xmlns="http://www.w3.org/2000/svg" width="512" height="512" viewBox="0 0 492.004 492.004"><path d="M117.43 264.685l207.067 207.063c4.79 4.793 11.182 7.433 18 7.433 6.816 0 13.21-2.64 17.998-7.433l15.25-15.245c9.922-9.934 9.922-26.08 0-35.999l-173.88-173.878L375.938 72.554c4.79-4.793 7.434-11.182 7.434-17.995 0-6.82-2.644-13.21-7.434-18.007l-15.249-15.241c-4.793-4.793-11.182-7.434-17.999-7.434-6.817 0-13.21 2.64-17.999 7.434L117.43 228.562c-4.8 4.808-7.436 11.228-7.421 18.052-.015 6.851 2.621 13.267 7.422 18.071z" data-original="#000000" stroke-width="19.488" fill="#363636" stroke="#363636"/></svg>