<svg xmlns="http://www.w3.org/2000/svg" viewBox="0 0 512 512"><path d="M308.905 88.694c-11.965-11.964-25.646-21.816-40.663-29.282a7.674 7.674 0 00-10.289 3.456 7.674 7.674 0 003.456 10.289c13.527 6.724 25.855 15.603 36.641 26.391 54.54 54.54 54.54 143.284 0 197.824-26.42 26.421-61.548 40.971-98.911 40.971-37.365 0-72.492-14.55-98.912-40.971-26.421-26.42-40.971-61.548-40.971-98.912 0-37.364 14.55-72.492 40.971-98.912 15.939-15.939 34.827-27.48 56.137-34.303 20.339-6.511 42.287-8.288 63.466-5.139a7.67 7.67 0 008.721-6.463 7.675 7.675 0 00-6.463-8.72c-23.493-3.493-47.839-1.522-70.405 5.703-23.328 7.468-44.876 20.632-62.312 38.068-29.319 29.319-45.466 68.301-45.466 109.766s16.147 80.447 45.466 109.766c29.32 29.32 68.302 45.467 109.767 45.467 41.463 0 80.446-16.147 109.766-45.467 60.526-60.526 60.526-159.007.001-219.532z" fill="#eaeef3"/><path d="M499.76 441.314L365.463 307.019c23.859-36.733 34.945-80.778 31.279-124.757-3.891-46.686-24.299-90.672-57.463-123.856C301.646 20.751 251.744.008 198.765 0h-.031C145.768 0 95.867 20.728 58.232 58.363c-77.472 77.473-77.471 203.53.001 281.002 33.183 33.183 77.174 53.605 123.871 57.504 43.996 3.672 88.044-7.409 124.785-31.276l134.296 134.295c8.075 8.075 18.68 12.112 29.287 12.112s21.213-4.037 29.288-12.112c16.148-16.149 16.148-42.425 0-58.574zm-10.854 47.72c-10.166 10.165-26.704 10.164-36.868 0L313.275 350.27a7.666 7.666 0 00-5.429-2.248 7.654 7.654 0 00-4.388 1.38c-34.843 24.301-77.477 35.725-120.076 32.171-43.084-3.598-83.674-22.442-114.293-53.062-71.489-71.487-71.49-187.806-.002-259.294 34.738-34.738 80.778-53.867 129.647-53.867h.029c48.878.007 94.926 19.152 129.66 53.907 30.602 30.62 49.433 71.206 53.023 114.281 3.543 42.501-7.837 85.056-32.041 119.856-5.209 6.443-19.6 23.681-26.66 29.802a7.674 7.674 0 005.031 13.473 7.646 7.646 0 005.025-1.876c6.502-5.638 16.965-17.801 23.319-25.41l132.786 132.785c10.163 10.163 10.163 26.702 0 36.866z" fill="#eaeef3"/></svg>