<svg width="21" height="21" fill="none" xmlns="http://www.w3.org/2000/svg"><path d="M15.675 20.083A14.778 14.778 0 01.917 5.325 4.408 4.408 0 015.325.917c.248-.002.495.02.738.067.235.034.466.092.69.172a.958.958 0 01.623.719l1.313 5.75a.958.958 0 01-.25.882c-.124.134-.134.143-1.312.757a9.497 9.497 0 004.667 4.686c.623-1.188.632-1.198.766-1.323a.958.958 0 01.882-.249l5.75 1.313a.959.959 0 01.69.623 4.162 4.162 0 01.24 1.428 4.408 4.408 0 01-4.447 4.341zM5.325 2.833a2.501 2.501 0 00-2.492 2.492 12.851 12.851 0 0012.842 12.842 2.5 2.5 0 002.492-2.492v-.316l-4.447-1.026-.278.527c-.431.834-.747 1.438-1.552 1.112a11.356 11.356 0 01-6.881-6.91c-.345-.747.306-1.092 1.13-1.523l.528-.259L5.64 2.833h-.316z" fill="#969696"/></svg>