<svg xmlns="http://www.w3.org/2000/svg" width="512" height="512" viewBox="0 0 492.004 492.004"><path d="M375.949 264.685L168.882 471.748c-4.789 4.793-11.182 7.433-17.999 7.433-6.817 0-13.21-2.64-17.999-7.433l-15.249-15.245c-9.923-9.934-9.923-26.08 0-35.999l173.879-173.878L117.442 72.554c-4.79-4.793-7.433-11.182-7.433-17.995 0-6.82 2.644-13.21 7.433-18.007l15.249-15.241c4.793-4.793 11.182-7.434 18-7.434 6.816 0 13.21 2.64 17.998 7.434l207.26 207.251c4.8 4.808 7.437 11.228 7.422 18.052.015 6.851-2.622 13.267-7.422 18.071z" data-original="#000000" stroke-width="19.488" fill="#363636" stroke="#363636"/></svg>